<svg xmlns="http://www.w3.org/2000/svg" xmlns:xlink="http://www.w3.org/1999/xlink" width="500" height="500" preserveAspectRatio="xMidYMid meet" version="1.0" viewBox="0 0 375 375" zoomAndPan="magnify"><defs><clipPath id="id1"><path d="M 9.417969 4.519531 L 367.917969 4.519531 L 367.917969 372 L 9.417969 372 Z M 9.417969 4.519531" clip-rule="nonzero"/></clipPath></defs><path fill="#172738" fill-opacity="1" fill-rule="nonzero" d="M 188.664062 46.855469 C 110.574219 46.9375 47.296875 110.351562 47.378906 188.46875 C 47.53125 266.609375 111.011719 329.824219 189.164062 329.691406 C 267.261719 329.585938 330.503906 266.195312 330.410156 188.054688 C 330.304688 109.929688 266.792969 46.722656 188.664062 46.855469 Z M 231.800781 103.628906 L 232.113281 299.296875 C 227.722656 301.015625 223.207031 302.480469 218.585938 303.671875 L 218.34375 124.675781 L 158.890625 146.496094 L 159.1875 303.640625 C 154.566406 302.441406 150.050781 300.976562 145.667969 299.25 L 145.492188 167.464844 L 83.886719 189.316406 L 84.0625 245.070312 C 74.886719 228.257812 69.667969 208.953125 69.648438 188.445312 C 69.539062 122.605469 122.910156 69.101562 188.734375 69.019531 C 215.5 68.972656 240.082031 77.882812 259.972656 92.703125 Z M 293.429688 130.859375 C 302.820312 147.847656 308.152344 167.339844 308.175781 188.09375 C 308.21875 208.824219 302.933594 228.339844 293.652344 245.328125 Z M 293.429688 130.859375"/><g clip-path="url(#id1)"><path fill="#15B5B0" fill-opacity="1" fill-rule="nonzero" d="M 9.277344 150.472656 C 26.984375 65.742188 101.507812 4.757812 188.574219 4.675781 L 188.839844 4.675781 C 232.214844 4.675781 274.304688 20.082031 307.347656 48.066406 C 338.574219 74.507812 360.148438 110.699219 368.503906 150.472656 C 355.847656 148.589844 345.023438 140.089844 340.082031 127.75 C 328.117188 97.894531 307.753906 72.433594 281.171875 54.113281 C 253.960938 35.363281 222.039062 25.453125 188.847656 25.453125 L 188.652344 25.453125 C 155.558594 25.503906 123.722656 35.429688 96.582031 54.167969 C 70.089844 72.46875 49.761719 97.890625 37.800781 127.683594 C 32.835938 140.058594 21.964844 148.589844 9.277344 150.472656 Z M 189.238281 371.878906 C 276.320312 371.75 350.828125 310.765625 368.503906 226.082031 C 355.847656 227.964844 345.007812 236.472656 340.058594 248.820312 C 328.109375 278.621094 307.785156 304.03125 281.277344 322.324219 C 254.128906 341.054688 222.285156 350.964844 189.175781 350.988281 L 188.886719 350.988281 C 155.726562 350.988281 123.828125 341.09375 96.632812 322.371094 C 70.058594 304.078125 49.695312 278.640625 37.722656 248.8125 C 32.773438 236.464844 21.941406 227.957031 9.277344 226.074219 C 27.0625 310.878906 101.753906 371.871094 188.972656 371.871094 L 189.238281 371.871094 Z M 330.410156 188.054688 C 330.496094 266.195312 267.253906 329.585938 189.164062 329.691406 C 111.011719 329.824219 47.53125 266.609375 47.378906 188.46875 C 47.296875 110.351562 110.574219 46.9375 188.664062 46.855469 C 266.792969 46.722656 330.304688 109.929688 330.410156 188.054688 Z M 259.964844 92.703125 C 240.074219 77.882812 215.492188 68.972656 188.726562 69.019531 C 122.902344 69.101562 69.53125 122.605469 69.640625 188.445312 C 69.660156 208.960938 74.878906 228.257812 84.054688 245.070312 L 83.878906 189.316406 L 145.484375 167.464844 L 145.660156 299.25 C 150.050781 300.96875 154.558594 302.441406 159.179688 303.640625 L 158.882812 146.496094 L 218.335938 124.675781 L 218.578125 303.671875 C 223.207031 302.480469 227.722656 301.015625 232.105469 299.296875 L 231.792969 103.628906 Z M 293.652344 245.335938 C 302.933594 228.347656 308.210938 208.824219 308.175781 188.101562 C 308.152344 167.347656 302.820312 147.855469 293.429688 130.867188 Z M 293.652344 245.335938"/></g></svg>